<svg xmlns="http://www.w3.org/2000/svg" xmlns:xlink="http://www.w3.org/1999/xlink" width="50" height="50" viewBox="0 0 50 50">
  <defs>
    <clipPath id="clip-path">
      <rect id="Rectangle_22150" data-name="Rectangle 22150" width="50" height="50" transform="translate(795 182) rotate(90)" fill="rgba(37,46,72,0.1)" stroke="#707070" stroke-width="1"/>
    </clipPath>
  </defs>
  <g id="arrow" transform="translate(-745 -182)" clip-path="url(#clip-path)">
    <path id="up-arrow_1_" data-name="up-arrow (1)" d="M41.6,35.592,35.592,41.6a1.5,1.5,0,0,1-2.123,0l-6.005-6.005a1.5,1.5,0,1,1,2.123-2.123l3.443,3.443V34.531c0-7.169-2.16-15.215-7.76-18.927,1.239,6.58-3.247,9.919-7.253,9.919a7.515,7.515,0,0,1-7.507-7.507c0-3.783,2.851-7.914,9.056-7.411C15.832,6.142,8.983,3,1.5,3a1.5,1.5,0,0,1,0-3c9.972,0,18.74,4.846,22.309,11.5C32.7,14.692,36.032,25.25,36.032,34.531v2.381l3.443-3.443A1.5,1.5,0,0,1,41.6,35.592ZM13.512,18.016a4.51,4.51,0,0,0,4.5,4.5c3.322,0,5.878-3.243,3.645-8.54C16.153,12.515,13.512,14.911,13.512,18.016Z" transform="matrix(0.998, -0.07, 0.07, 0.998, 747.609, 187.009)" fill="rgba(37,46,72,0.3)"/>
  </g>
</svg>
