<svg xmlns="http://www.w3.org/2000/svg" width="24" height="24" viewBox="0 0 24 24"><rect data-name="Rectangle 21224" width="24" height="24" fill="none"/><path data-name="Arrow - Right 2" d="M5.778,4.279c-.034.035-.162.184-.281.306A13.014,13.014,0,0,1,2.02,7a2.77,2.77,0,0,1-.707.2,1.16,1.16,0,0,1-.537-.131A1.124,1.124,0,0,1,.3,6.527a5.9,5.9,0,0,1-.154-.638A14.387,14.387,0,0,1,0,3.6,16.635,16.635,0,0,1,.128,1.391a5.1,5.1,0,0,1,.2-.8A1.071,1.071,0,0,1,1.279,0h.034a2.927,2.927,0,0,1,.793.245,13.014,13.014,0,0,1,3.4,2.38,3.4,3.4,0,0,1,.289.332A1.07,1.07,0,0,1,6,3.6a1.125,1.125,0,0,1-.222.683" transform="translate(15.199 10) rotate(90)" fill="#545F7E"/></svg>