<svg class="close" xmlns="http://www.w3.org/2000/svg" width="20" height="20" viewBox="0 0 20 20"><path class="close" d="M16.221,13l6.455,6.455a1.111,1.111,0,0,1,0,1.567l-1.655,1.655a1.111,1.111,0,0,1-1.567,0L13,16.221,6.544,22.676a1.111,1.111,0,0,1-1.567,0L3.322,21.021a1.111,1.111,0,0,1,0-1.567L9.777,13,3.322,6.544a1.111,1.111,0,0,1,0-1.567L4.978,3.322a1.111,1.111,0,0,1,1.567,0L13,9.777l6.455-6.455a1.111,1.111,0,0,1,1.567,0l1.655,1.655a1.111,1.111,0,0,1,0,1.567Z" transform="translate(-2.999 -2.999)" fill="#c1c9e0"/></svg>