<svg xmlns="http://www.w3.org/2000/svg" xmlns:xlink="http://www.w3.org/1999/xlink" width="22" height="12" viewBox="0 0 19 12"><defs><path id="arrow_top-a" d="M12.8225264,-2.62844364 L4.70168732,5.16749877 C4.30327456,5.54997192 4.29035296,6.18300504 4.67282611,6.5814178 C4.68224916,6.59123355 4.69187157,6.60085596 4.70168732,6.61027901 L12.8225264,14.4062214 C13.3385811,14.9016299 14.1535959,14.9016299 14.6696506,14.4062214 L14.6696506,14.4062214 C15.1593131,13.9361492 15.1751942,13.1581305 14.705122,12.6684679 C14.6935407,12.656404 14.6817145,12.6445778 14.6696506,12.6329965 L7.64448157,5.88888889 L14.6696506,-0.855218771 C15.1593131,-1.32529099 15.1751942,-2.10330973 14.705122,-2.59297225 C14.6935407,-2.60503614 14.6817145,-2.6168624 14.6696506,-2.62844364 L14.6696506,-2.62844364 C14.1535959,-3.12385212 13.3385811,-3.12385212 12.8225264,-2.62844364 Z"/></defs><use fill="#387DFF" fill-rule="evenodd" transform="matrix(0 1 1 0 3.61 -3.61)" xlink:href="#arrow_top-a"/></svg>