<svg xmlns="http://www.w3.org/2000/svg" xmlns:xlink="http://www.w3.org/1999/xlink" width="240" height="180" viewBox="0 0 240 180">
  <defs>
    <clipPath id="clip-path">
      <rect id="Rectangle_21867" data-name="Rectangle 21867" width="240" height="180" transform="translate(741 2010)" fill="none"/>
    </clipPath>
    <linearGradient id="linear-gradient" x1="0.5" x2="0.5" y2="1" gradientUnits="objectBoundingBox">
      <stop offset="0" stop-color="#f06685"/>
      <stop offset="1" stop-color="#f560b6"/>
    </linearGradient>
    <linearGradient id="linear-gradient-2" x2="0.453" y2="0.985" xlink:href="#linear-gradient"/>
    <filter id="Path_26275" x="-24" y="-9" width="210.018" height="210" filterUnits="userSpaceOnUse">
      <feOffset dy="6" input="SourceAlpha"/>
      <feGaussianBlur stdDeviation="5" result="blur"/>
      <feFlood flood-color="#df3f66" flood-opacity="0.502"/>
      <feComposite operator="in" in2="blur"/>
      <feComposite in="SourceGraphic"/>
    </filter>
    <filter id="Path_26275-2" x="-24" y="-9" width="210.018" height="210" filterUnits="userSpaceOnUse">
      <feOffset dx="3" dy="3" input="SourceAlpha"/>
      <feGaussianBlur stdDeviation="3" result="blur-2"/>
      <feFlood flood-color="#fff" flood-opacity="0.502" result="color"/>
      <feComposite operator="out" in="SourceGraphic" in2="blur-2"/>
      <feComposite operator="in" in="color"/>
      <feComposite operator="in" in2="SourceGraphic"/>
    </filter>
  </defs>
  <g id="En_try_today" data-name="En_try today" transform="translate(-741 -2010)" clip-path="url(#clip-path)">
    <g id="Illustration_Try_today" data-name="Illustration_Try today" transform="translate(599.283 -1310.471)">
      <path id="Arrow" d="M9.2,7.881c0,1.779-.035,3.355.006,4.929a48.828,48.828,0,0,0,4.707,20.783,25.954,25.954,0,0,0,11.051,11.87,7.868,7.868,0,0,0,1.487.7,3.8,3.8,0,0,1,2.234,1.912,31.64,31.64,0,0,0,12.8,11.39A42.213,42.213,0,0,0,57.05,64.053c1.615.155,3.241.224,4.865.27a2.24,2.24,0,0,0,2.4-2.287,2.269,2.269,0,0,0-2.4-2.291,38.553,38.553,0,0,1-21.7-6.506,60.022,60.022,0,0,1-5.218-4.461,6.287,6.287,0,0,1-.555-.662c1.049,0,1.967.039,2.88-.006a11.226,11.226,0,0,0,10.708-9.036,11.523,11.523,0,0,0-9.469-13.639,11.231,11.231,0,0,0-13.076,9.791,29.727,29.727,0,0,0,.048,4.425c0,.189.031.377.062.731-.321-.219-.546-.36-.758-.519a24.771,24.771,0,0,1-8.014-11.144,41.06,41.06,0,0,1-2.75-12.246c-.194-2.787-.26-5.582-.384-8.373l.186-.067c.15.128.308.246.447.384q2.262,2.254,4.52,4.512A2.318,2.318,0,1,0,22.118,9.7Q17.708,5.278,13.289.868A2.29,2.29,0,0,0,9.7.861Q5.256,5.291.825,9.74a2.312,2.312,0,1,0,3.269,3.244C5.754,11.336,7.405,9.679,9.2,7.881ZM35.093,43.608c-.687-.109-2.056-.3-3.411-.562a1.011,1.011,0,0,1-.659-.6,30.087,30.087,0,0,1-1.077-4.792c-.424-4.9,3.283-8.411,8.01-7.614a6.4,6.4,0,0,1,5.431,5.054,6.336,6.336,0,0,1-2.205,6.943C39.622,43.3,37.736,43.6,35.093,43.608Z" transform="translate(372.717 3415.533) rotate(162)" fill="url(#linear-gradient)"/>
      <g data-type="innerShadowGroup">
        <g transform="matrix(1, 0, 0, 1, 141.72, 3320.47)" filter="url(#Path_26275)">
          <path id="Path_26275-3" data-name="Path 26275" d="M82.8.8a4.953,4.953,0,0,1,7.3,2.352l6.2,15.827a4.953,4.953,0,0,0,4.214,3.13l16.178,1.3a4.953,4.953,0,0,1,4.429,6.049L117.175,46.62a4.953,4.953,0,0,0,1.525,4.8l12.772,11.424a4.953,4.953,0,0,1,0,7.384L118.7,81.656a4.953,4.953,0,0,0-1.525,4.8l3.953,17.161a4.953,4.953,0,0,1-4.429,6.049l-16.178,1.3a4.953,4.953,0,0,0-4.214,3.13l-6.2,15.827a4.953,4.953,0,0,1-7.3,2.352l-13.552-8.771a4.953,4.953,0,0,0-5.382,0l-13.552,8.771a4.953,4.953,0,0,1-7.3-2.352l-6.2-15.827a4.953,4.953,0,0,0-4.214-3.13l-16.178-1.3A4.953,4.953,0,0,1,12,103.62l3.953-17.161a4.953,4.953,0,0,0-1.525-4.8L1.651,70.232a4.953,4.953,0,0,1,0-7.384L14.424,51.424a4.953,4.953,0,0,0,1.525-4.8L12,29.46a4.953,4.953,0,0,1,4.429-6.049l16.178-1.3a4.953,4.953,0,0,0,4.214-3.13l6.2-15.827A4.953,4.953,0,0,1,50.319.8L63.87,9.568a4.953,4.953,0,0,0,5.382,0Z" transform="matrix(0.88, -0.47, 0.47, 0.88, -9, 62.5)" fill="url(#linear-gradient-2)"/>
        </g>
        <g transform="matrix(1, 0, 0, 1, 141.72, 3320.47)" filter="url(#Path_26275-2)">
          <path id="Path_26275-4" data-name="Path 26275" d="M82.8.8a4.953,4.953,0,0,1,7.3,2.352l6.2,15.827a4.953,4.953,0,0,0,4.214,3.13l16.178,1.3a4.953,4.953,0,0,1,4.429,6.049L117.175,46.62a4.953,4.953,0,0,0,1.525,4.8l12.772,11.424a4.953,4.953,0,0,1,0,7.384L118.7,81.656a4.953,4.953,0,0,0-1.525,4.8l3.953,17.161a4.953,4.953,0,0,1-4.429,6.049l-16.178,1.3a4.953,4.953,0,0,0-4.214,3.13l-6.2,15.827a4.953,4.953,0,0,1-7.3,2.352l-13.552-8.771a4.953,4.953,0,0,0-5.382,0l-13.552,8.771a4.953,4.953,0,0,1-7.3-2.352l-6.2-15.827a4.953,4.953,0,0,0-4.214-3.13l-16.178-1.3A4.953,4.953,0,0,1,12,103.62l3.953-17.161a4.953,4.953,0,0,0-1.525-4.8L1.651,70.232a4.953,4.953,0,0,1,0-7.384L14.424,51.424a4.953,4.953,0,0,0,1.525-4.8L12,29.46a4.953,4.953,0,0,1,4.429-6.049l16.178-1.3a4.953,4.953,0,0,0,4.214-3.13l6.2-15.827A4.953,4.953,0,0,1,50.319.8L63.87,9.568a4.953,4.953,0,0,0,5.382,0Z" transform="matrix(0.88, -0.47, 0.47, 0.88, -9, 62.5)" fill="#fff"/>
        </g>
      </g>
      <path id="Paragraph_16_sec_002" data-name="Paragraph 16 sec 002" d="M-19.96-11.36h-4.48V-14h12.2v2.64h-4.48V0h-3.24ZM-.58,0l-2.7-3.9H-6.26V0H-9.5V-14h6.06a7.777,7.777,0,0,1,3.23.62A4.8,4.8,0,0,1,1.9-11.62a4.849,4.849,0,0,1,.74,2.7,4.752,4.752,0,0,1-.75,2.69A4.754,4.754,0,0,1-.24-4.5L2.9,0ZM-.64-8.92a2.218,2.218,0,0,0-.76-1.81,3.4,3.4,0,0,0-2.22-.63H-6.26v4.88h2.64A3.365,3.365,0,0,0-1.4-7.12,2.224,2.224,0,0,0-.64-8.92ZM12.72-4.96V0H9.48V-5L4.06-14H7.5l3.74,6.22L14.98-14h3.18Zm-46.83,21.6h-4.48V14h12.2v2.64h-4.48V28h-3.24Zm17.04,11.6A8.172,8.172,0,0,1-21,27.3a6.977,6.977,0,0,1-2.74-2.59A7.071,7.071,0,0,1-24.73,21a7.071,7.071,0,0,1,.99-3.71A6.977,6.977,0,0,1-21,14.7a8.172,8.172,0,0,1,3.93-.94,8.114,8.114,0,0,1,3.92.94,7.067,7.067,0,0,1,2.74,2.59,7.017,7.017,0,0,1,1,3.71,7.017,7.017,0,0,1-1,3.71,7.067,7.067,0,0,1-2.74,2.59A8.114,8.114,0,0,1-17.07,28.24Zm0-2.76a4.443,4.443,0,0,0,2.24-.57,4.09,4.09,0,0,0,1.57-1.59A4.674,4.674,0,0,0-12.69,21a4.674,4.674,0,0,0-.57-2.32,4.09,4.09,0,0,0-1.57-1.59,4.443,4.443,0,0,0-2.24-.57,4.443,4.443,0,0,0-2.24.57,4.09,4.09,0,0,0-1.57,1.59A4.674,4.674,0,0,0-21.45,21a4.674,4.674,0,0,0,.57,2.32,4.09,4.09,0,0,0,1.57,1.59A4.443,4.443,0,0,0-17.07,25.48ZM-5.97,14H.39a8.938,8.938,0,0,1,4.03.87,6.514,6.514,0,0,1,2.72,2.45A6.891,6.891,0,0,1,8.11,21a6.891,6.891,0,0,1-.97,3.68,6.514,6.514,0,0,1-2.72,2.45A8.938,8.938,0,0,1,.39,28H-5.97ZM.23,25.34a4.7,4.7,0,0,0,3.35-1.17A4.132,4.132,0,0,0,4.83,21a4.132,4.132,0,0,0-1.25-3.17A4.7,4.7,0,0,0,.23,16.66H-2.73v8.68ZM20.57,25h-6.5l-1.24,3H9.51l6.24-14h3.2l6.26,14h-3.4Zm-1.02-2.46-2.22-5.36-2.22,5.36Zm13.98.5V28H30.29V23l-5.42-9h3.44l3.74,6.22L35.79,14h3.18Z" transform="matrix(0.883, -0.469, 0.469, 0.883, 220.815, 3404.29)" fill="#fff"/>
    </g>
  </g>
</svg>
